<svg width="19" height="19" viewBox="0 0 19 19" fill="none" xmlns="http://www.w3.org/2000/svg">
<path fill-rule="evenodd" clip-rule="evenodd" d="M1.38291 0.646447C1.18765 0.451184 0.87107 0.451184 0.675808 0.646447C0.480546 0.841709 0.480546 1.15829 0.675808 1.35355L8.79286 9.47061L0.646447 17.617C0.451184 17.8123 0.451184 18.1289 0.646447 18.3241C0.841709 18.5194 1.15829 18.5194 1.35355 18.3241L9.49997 10.1777L17.6464 18.3241C17.8416 18.5194 18.1582 18.5194 18.3535 18.3241C18.5487 18.1289 18.5487 17.8123 18.3535 17.617L10.2071 9.47061L18.3241 1.35357C18.5194 1.15831 18.5194 0.841724 18.3241 0.646462C18.1289 0.4512 17.8123 0.4512 17.617 0.646462L9.49997 8.7635L1.38291 0.646447Z" fill="white"/>
</svg>
