<svg width="29" xmlns="http://www.w3.org/2000/svg" viewBox="0 0 28 28"><path d="M11.74,13.55a1.37,1.37,0,0,0,0,2.71A1.24,1.24,0,0,0,13,14.9,1.16,1.16,0,0,0,11.74,13.55Z" style="fill:#fff;fill-rule:evenodd"/><path d="M16.26,13.55a1.23,1.23,0,0,0-1.21,1.35,1.33,1.33,0,0,0,1.21,1.36,1.23,1.23,0,0,0,1.2-1.36A1.32,1.32,0,0,0,16.26,13.55Z" style="fill:#fff;fill-rule:evenodd"/><path d="M14,0A14,14,0,1,0,28,14,14.07,14.07,0,0,0,14,0Zm3.46,19.12-.9-.9a3.8,3.8,0,0,0,2.11-1.51,6.14,6.14,0,0,1-1.36.75,4,4,0,0,1-1.8.45,11.17,11.17,0,0,1-3.17,0c-.75-.15-1.2-.3-1.8-.45L9.63,17h0l-.3-.15a4,4,0,0,0,2.11,1.36l-.75,1.05a4.26,4.26,0,0,1-3.61-1.81,15.85,15.85,0,0,1,1.8-7.07A5.72,5.72,0,0,1,12.19,9l.15.15A8.94,8.94,0,0,0,9,10.69l.75-.3a7.21,7.21,0,0,1,2.71-.76h.16a6.44,6.44,0,0,1,2.4,0,8.63,8.63,0,0,1,3.62,1.21,7.47,7.47,0,0,0-3-1.51L16,9a6.17,6.17,0,0,1,3.31,1.21,15.78,15.78,0,0,1,1.81,7.07A4.65,4.65,0,0,1,17.46,19.12Z" style="fill:#fff;fill-rule:evenodd"/></svg>