<svg width="28" height="28" viewBox="0 0 28 28" fill="none" xmlns="http://www.w3.org/2000/svg">
	<path fill-rule="evenodd" clip-rule="evenodd" d="M13.6088 0C6.09289 0 0 6.26801 0 14C0 21.732 6.09289 28 13.6088 28C21.1248 28 27.2177 21.732 27.2177 14C27.2177 6.26801 21.1248 0 13.6088 0ZM6.5332 11.5955H9.61726V21.1281H6.5332V11.5955ZM9.82112 8.64685C9.8011 7.71218 9.15139 7.00028 8.09635 7.00028C7.04131 7.00028 6.35156 7.71218 6.35156 8.64685C6.35156 9.56216 7.02092 10.2946 8.05631 10.2946H8.07602C9.15139 10.2946 9.82112 9.56216 9.82112 8.64685ZM17.1885 11.3724C19.218 11.3724 20.7394 12.7352 20.7394 15.6632L20.7393 21.1289H17.6554V16.029C17.6554 14.748 17.2091 13.8738 16.0926 13.8738C15.2406 13.8738 14.7331 14.4631 14.5102 15.0323C14.4287 15.2363 14.4086 15.5205 14.4086 15.8054V21.1292H11.3242C11.3242 21.1292 11.3649 12.491 11.3242 11.5965H14.4086V12.9468C14.818 12.2977 15.5511 11.3724 17.1885 11.3724Z" fill="white"/>
</svg>