<svg width="202" height="25" viewBox="0 0 202 25" fill="none" xmlns="http://www.w3.org/2000/svg">
<path d="M159.714 20L165.006 4.544L167.148 4.544L172.44 20H170.718L169.164 15.59L162.948 15.59L161.436 20H159.714ZM163.368 14.078L168.744 14.078L166.077 6.014L163.368 14.078ZM174.536 24.977V8.786H175.88L176.195 9.941C176.447 9.759 176.769 9.57 177.161 9.374C177.567 9.164 178.001 8.989 178.463 8.849C178.939 8.709 179.408 8.639 179.87 8.639C180.598 8.639 181.214 8.8 181.718 9.122C182.236 9.43 182.656 9.85 182.978 10.382C183.3 10.914 183.531 11.523 183.671 12.209C183.811 12.895 183.881 13.616 183.881 14.372C183.881 15.632 183.734 16.696 183.44 17.564C183.16 18.418 182.726 19.062 182.138 19.496C181.55 19.93 180.794 20.147 179.87 20.147C179.24 20.147 178.603 20.049 177.959 19.853C177.329 19.643 176.741 19.384 176.195 19.076V24.977H174.536ZM179.408 18.74C179.94 18.74 180.416 18.607 180.836 18.341C181.256 18.075 181.592 17.627 181.844 16.997C182.096 16.353 182.222 15.478 182.222 14.372C182.222 13.322 182.089 12.482 181.823 11.852C181.557 11.208 181.214 10.746 180.794 10.466C180.374 10.172 179.912 10.025 179.408 10.025C178.764 10.025 178.169 10.13 177.623 10.34C177.091 10.536 176.615 10.746 176.195 10.97V17.837C176.685 18.103 177.203 18.32 177.749 18.488C178.309 18.656 178.862 18.74 179.408 18.74ZM186.467 24.977V8.786H187.811L188.126 9.941C188.378 9.759 188.7 9.57 189.092 9.374C189.498 9.164 189.932 8.989 190.394 8.849C190.87 8.709 191.339 8.639 191.801 8.639C192.529 8.639 193.145 8.8 193.649 9.122C194.167 9.43 194.587 9.85 194.909 10.382C195.231 10.914 195.462 11.523 195.602 12.209C195.742 12.895 195.812 13.616 195.812 14.372C195.812 15.632 195.665 16.696 195.371 17.564C195.091 18.418 194.657 19.062 194.069 19.496C193.481 19.93 192.725 20.147 191.801 20.147C191.171 20.147 190.534 20.049 189.89 19.853C189.26 19.643 188.672 19.384 188.126 19.076V24.977H186.467ZM191.339 18.74C191.871 18.74 192.347 18.607 192.767 18.341C193.187 18.075 193.523 17.627 193.775 16.997C194.027 16.353 194.153 15.478 194.153 14.372C194.153 13.322 194.02 12.482 193.754 11.852C193.488 11.208 193.145 10.746 192.725 10.466C192.305 10.172 191.843 10.025 191.339 10.025C190.695 10.025 190.1 10.13 189.554 10.34C189.022 10.536 188.546 10.746 188.126 10.97V17.837C188.616 18.103 189.134 18.32 189.68 18.488C190.24 18.656 190.793 18.74 191.339 18.74Z" fill="black"/>
<path d="M152 0V24" stroke="black" stroke-width="1.5"/>
<path d="M48.5873 19.4598C48.5873 19.5665 48.5468 19.6599 48.4657 19.7399C48.3845 19.8199 48.2899 19.8599 48.1818 19.8599H47.2085C47.1004 19.8599 47.0058 19.8199 46.9247 19.7399C46.8436 19.6599 46.803 19.5665 46.803 19.4598V12.877C46.803 12.3701 46.7557 11.9499 46.6611 11.6165C46.58 11.2696 46.4448 10.9962 46.2556 10.7961C46.0798 10.596 45.85 10.456 45.5662 10.3759C45.2823 10.2826 44.9511 10.2359 44.5727 10.2359C44.1401 10.2359 43.694 10.3092 43.2344 10.456C42.7748 10.6027 42.3085 10.7894 41.8354 11.0162V19.4598C41.8354 19.5665 41.7948 19.6599 41.7137 19.7399C41.6326 19.8199 41.538 19.8599 41.4299 19.8599H40.4363C40.3282 19.8599 40.2336 19.8199 40.1525 19.7399C40.0849 19.6599 40.0511 19.5665 40.0511 19.4598V9.25545C40.0511 9.14874 40.0849 9.05537 40.1525 8.97534C40.2336 8.8953 40.3282 8.85528 40.4363 8.85528H41.4501C41.5583 8.85528 41.6461 8.8953 41.7137 8.97534C41.7948 9.05537 41.8354 9.14874 41.8354 9.25545V9.63561C42.4031 9.32882 42.9303 9.10206 43.4169 8.95533C43.9035 8.79526 44.451 8.71523 45.0593 8.71523C46.2894 8.71523 47.1815 9.07538 47.7357 9.79568C48.3034 10.516 48.5873 11.5431 48.5873 12.877V19.4598Z" fill="black"/>
<path d="M59.9346 14.4777C59.9346 14.7711 59.8062 14.9179 59.5494 14.9179H52.7569V15.198C52.7569 16.3851 52.9934 17.2255 53.4665 17.719C53.9397 18.2126 54.6426 18.4593 55.5753 18.4593C56.17 18.4593 56.7986 18.4393 57.4609 18.3993C58.1368 18.3593 58.7113 18.306 59.1844 18.2393H59.2858C59.3669 18.2393 59.4412 18.2593 59.5088 18.2993C59.5764 18.3393 59.6102 18.4127 59.6102 18.5194V19.1997C59.6102 19.3331 59.5832 19.4398 59.5291 19.5198C59.475 19.5865 59.3669 19.6332 59.2047 19.6599C58.6234 19.7666 58.0422 19.8466 57.4609 19.9C56.8932 19.9667 56.2646 20 55.5753 20C54.994 20 54.4263 19.9266 53.8721 19.7799C53.3179 19.6198 52.8245 19.3597 52.3919 18.9996C51.9729 18.6261 51.6282 18.1325 51.3578 17.519C51.101 16.9054 50.9726 16.1317 50.9726 15.198V13.3972C50.9726 11.9566 51.3578 10.8161 52.1283 9.97576C52.8988 9.1354 54.014 8.71523 55.4739 8.71523C56.2173 8.71523 56.8662 8.82861 57.4204 9.05537C57.9746 9.26879 58.4342 9.58226 58.7991 9.99577C59.1776 10.3959 59.4615 10.8895 59.6507 11.4764C59.84 12.05 59.9346 12.6902 59.9346 13.3972V14.4777ZM58.13 13.3972C58.13 12.2634 57.907 11.4564 57.4609 10.9762C57.0284 10.496 56.366 10.2559 55.4739 10.2559C54.5952 10.2559 53.9194 10.5093 53.4463 11.0162C52.9867 11.5231 52.7569 12.3168 52.7569 13.3972V13.5773H58.13V13.3972Z" fill="black"/>
<path d="M70.5474 9.19543C70.5474 9.24878 70.5406 9.29547 70.5271 9.33549L67.7898 18.8595C67.6547 19.313 67.4249 19.6198 67.1004 19.7799C66.776 19.9266 66.3975 20 65.965 20C65.5324 20 65.1539 19.9266 64.8295 19.7799C64.5051 19.6198 64.2753 19.313 64.1401 18.8595L61.4029 9.33549C61.3894 9.29547 61.3826 9.24878 61.3826 9.19543C61.3826 8.96867 61.4907 8.85528 61.707 8.85528H62.8222C62.9979 8.85528 63.1263 8.98201 63.2074 9.23545L65.5392 17.9591C65.6068 18.1992 65.6676 18.3593 65.7217 18.4393C65.7757 18.506 65.8568 18.5394 65.965 18.5394C66.0596 18.5394 66.134 18.506 66.188 18.4393C66.2556 18.3593 66.3232 18.1992 66.3908 17.9591L68.7225 9.23545C68.8036 8.98201 68.9321 8.85528 69.1078 8.85528H70.223C70.4392 8.85528 70.5474 8.96867 70.5474 9.19543Z" fill="black"/>
<path d="M80.9235 14.4777C80.9235 14.7711 80.7951 14.9179 80.5382 14.9179H73.7458V15.198C73.7458 16.3851 73.9823 17.2255 74.4554 17.719C74.9285 18.2126 75.6314 18.4593 76.5641 18.4593C77.1589 18.4593 77.7875 18.4393 78.4498 18.3993C79.1257 18.3593 79.7002 18.306 80.1733 18.2393H80.2747C80.3558 18.2393 80.4301 18.2593 80.4977 18.2993C80.5653 18.3393 80.5991 18.4127 80.5991 18.5194V19.1997C80.5991 19.3331 80.572 19.4398 80.518 19.5198C80.4639 19.5865 80.3558 19.6332 80.1936 19.6599C79.6123 19.7666 79.031 19.8466 78.4498 19.9C77.8821 19.9667 77.2535 20 76.5641 20C75.9829 20 75.4152 19.9266 74.8609 19.7799C74.3067 19.6198 73.8133 19.3597 73.3808 18.9996C72.9618 18.6261 72.6171 18.1325 72.3467 17.519C72.0899 16.9054 71.9615 16.1317 71.9615 15.198V13.3972C71.9615 11.9566 72.3467 10.8161 73.1172 9.97576C73.8877 9.1354 75.0029 8.71523 76.4628 8.71523C77.2062 8.71523 77.855 8.82861 78.4092 9.05537C78.9635 9.26879 79.4231 9.58226 79.788 9.99577C80.1665 10.3959 80.4504 10.8895 80.6396 11.4764C80.8289 12.05 80.9235 12.6902 80.9235 13.3972V14.4777ZM79.1189 13.3972C79.1189 12.2634 78.8959 11.4564 78.4498 10.9762C78.0172 10.496 77.3549 10.2559 76.4628 10.2559C75.5841 10.2559 74.9083 10.5093 74.4351 11.0162C73.9756 11.5231 73.7458 12.3168 73.7458 13.3972V13.5773H79.1189V13.3972Z" fill="black"/>
<path d="M88.3637 9.89572C88.3637 10.1225 88.2218 10.2359 87.9379 10.2359C87.4648 10.2359 87.0052 10.3026 86.5591 10.436C86.1266 10.556 85.6534 10.7694 85.1398 11.0762V19.4598C85.1398 19.5665 85.0992 19.6599 85.0181 19.7399C84.937 19.8199 84.8424 19.8599 84.7343 19.8599H83.7407C83.6326 19.8599 83.538 19.8199 83.4569 19.7399C83.3893 19.6599 83.3555 19.5665 83.3555 19.4598V9.25545C83.3555 9.14874 83.3893 9.05537 83.4569 8.97534C83.538 8.8953 83.6326 8.85528 83.7407 8.85528H84.6937C84.8019 8.85528 84.8897 8.8953 84.9573 8.97534C85.0384 9.05537 85.079 9.14874 85.079 9.25545V9.67563C85.5926 9.32882 86.0792 9.08205 86.5388 8.93532C87.0119 8.78859 87.4783 8.71523 87.9379 8.71523C88.2218 8.71523 88.3637 8.83528 88.3637 9.07538V9.89572Z" fill="black"/>
<path d="M103.709 19.4598C103.709 19.5665 103.668 19.6599 103.587 19.7399C103.506 19.8199 103.411 19.8599 103.303 19.8599H102.33C102.222 19.8599 102.127 19.8199 102.046 19.7399C101.965 19.6599 101.924 19.5665 101.924 19.4598V12.3768C101.924 11.9633 101.877 11.6165 101.782 11.3363C101.688 11.0562 101.559 10.8361 101.397 10.6761C101.235 10.516 101.039 10.4026 100.809 10.3359C100.579 10.2692 100.336 10.2359 100.079 10.2359C99.7142 10.2359 99.3221 10.2892 98.9031 10.3959C98.4976 10.5026 98.0988 10.6294 97.7068 10.7761C97.8285 11.2163 97.8893 11.7365 97.8893 12.3368V19.4598C97.8893 19.5665 97.8555 19.6599 97.7879 19.7399C97.7203 19.8199 97.6325 19.8599 97.5243 19.8599H96.4497C96.3416 19.8599 96.2537 19.8199 96.1861 19.7399C96.132 19.6599 96.105 19.5665 96.105 19.4598V12.3368C96.105 11.8966 96.0712 11.5431 96.0036 11.2763C95.9496 10.9962 95.8549 10.7828 95.7198 10.636C95.5846 10.476 95.4156 10.3693 95.2129 10.3159C95.0236 10.2625 94.8006 10.2359 94.5438 10.2359C94.1788 10.2359 93.78 10.3159 93.3475 10.476C92.9284 10.6227 92.5026 10.8028 92.0701 11.0162V19.4598C92.0701 19.5665 92.0363 19.6599 91.9687 19.7399C91.9011 19.8199 91.8133 19.8599 91.7051 19.8599H90.6305C90.5223 19.8599 90.4345 19.8199 90.3669 19.7399C90.3128 19.6599 90.2858 19.5665 90.2858 19.4598V9.25545C90.2858 9.14874 90.3196 9.05537 90.3872 8.97534C90.4683 8.8953 90.5629 8.85528 90.671 8.85528H91.6848C91.793 8.85528 91.8808 8.8953 91.9484 8.97534C92.0295 9.05537 92.0701 9.14874 92.0701 9.25545V9.63561C92.4756 9.38217 92.9284 9.16208 93.4286 8.97534C93.9287 8.78859 94.4627 8.69522 95.0304 8.69522C95.4629 8.69522 95.8414 8.76191 96.1658 8.8953C96.5038 9.01535 96.8012 9.22211 97.058 9.51556C97.6257 9.24878 98.1934 9.0487 98.7612 8.91531C99.3424 8.76858 99.8966 8.69522 100.424 8.69522C100.883 8.69522 101.309 8.75524 101.701 8.87529C102.107 8.99534 102.458 9.2021 102.756 9.49556C103.053 9.77567 103.283 10.1558 103.445 10.636C103.621 11.1029 103.709 11.6831 103.709 12.3768V19.4598Z" fill="black"/>
<path d="M108.511 6.69437C108.511 6.80108 108.47 6.89446 108.389 6.97449C108.308 7.05452 108.214 7.09454 108.105 7.09454H107.071C106.963 7.09454 106.869 7.05452 106.787 6.97449C106.706 6.89446 106.666 6.80108 106.666 6.69437V5.09369C106.666 4.98698 106.706 4.89361 106.787 4.81357C106.869 4.73354 106.963 4.69352 107.071 4.69352H108.105C108.214 4.69352 108.308 4.73354 108.389 4.81357C108.47 4.89361 108.511 4.98698 108.511 5.09369V6.69437ZM108.47 19.4598C108.47 19.5665 108.43 19.6599 108.349 19.7399C108.268 19.8199 108.173 19.8599 108.065 19.8599H107.092C106.983 19.8599 106.889 19.8199 106.808 19.7399C106.727 19.6599 106.686 19.5665 106.686 19.4598V9.25545C106.686 9.14874 106.727 9.05537 106.808 8.97534C106.889 8.8953 106.983 8.85528 107.092 8.85528H108.065C108.173 8.85528 108.268 8.8953 108.349 8.97534C108.43 9.05537 108.47 9.14874 108.47 9.25545V19.4598Z" fill="black"/>
<path d="M120.009 19.4598C120.009 19.5665 119.968 19.6599 119.887 19.7399C119.806 19.8199 119.711 19.8599 119.603 19.8599H118.63C118.522 19.8599 118.427 19.8199 118.346 19.7399C118.265 19.6599 118.225 19.5665 118.225 19.4598V12.877C118.225 12.3701 118.177 11.9499 118.083 11.6165C118.002 11.2696 117.866 10.9962 117.677 10.7961C117.501 10.596 117.272 10.456 116.988 10.3759C116.704 10.2826 116.373 10.2359 115.994 10.2359C115.562 10.2359 115.116 10.3092 114.656 10.456C114.196 10.6027 113.73 10.7894 113.257 11.0162V19.4598C113.257 19.5665 113.216 19.6599 113.135 19.7399C113.054 19.8199 112.96 19.8599 112.851 19.8599H111.858C111.75 19.8599 111.655 19.8199 111.574 19.7399C111.506 19.6599 111.473 19.5665 111.473 19.4598V9.25545C111.473 9.14874 111.506 9.05537 111.574 8.97534C111.655 8.8953 111.75 8.85528 111.858 8.85528H112.872C112.98 8.85528 113.068 8.8953 113.135 8.97534C113.216 9.05537 113.257 9.14874 113.257 9.25545V9.63561C113.825 9.32882 114.352 9.10206 114.838 8.95533C115.325 8.79526 115.873 8.71523 116.481 8.71523C117.711 8.71523 118.603 9.07538 119.157 9.79568C119.725 10.516 120.009 11.5431 120.009 12.877V19.4598Z" fill="black"/>
<path d="M131.356 14.4777C131.356 14.7711 131.228 14.9179 130.971 14.9179H124.178V15.198C124.178 16.3851 124.415 17.2255 124.888 17.719C125.361 18.2126 126.064 18.4593 126.997 18.4593C127.592 18.4593 128.22 18.4393 128.883 18.3993C129.558 18.3593 130.133 18.306 130.606 18.2393H130.707C130.788 18.2393 130.863 18.2593 130.93 18.2993C130.998 18.3393 131.032 18.4127 131.032 18.5194V19.1997C131.032 19.3331 131.005 19.4398 130.951 19.5198C130.897 19.5865 130.788 19.6332 130.626 19.6599C130.045 19.7666 129.464 19.8466 128.883 19.9C128.315 19.9667 127.686 20 126.997 20C126.416 20 125.848 19.9266 125.294 19.7799C124.739 19.6198 124.246 19.3597 123.813 18.9996C123.394 18.6261 123.05 18.1325 122.779 17.519C122.523 16.9054 122.394 16.1317 122.394 15.198V13.3972C122.394 11.9566 122.779 10.8161 123.55 9.97576C124.32 9.1354 125.436 8.71523 126.895 8.71523C127.639 8.71523 128.288 8.82861 128.842 9.05537C129.396 9.26879 129.856 9.58226 130.221 9.99577C130.599 10.3959 130.883 10.8895 131.072 11.4764C131.262 12.05 131.356 12.6902 131.356 13.3972V14.4777ZM129.552 13.3972C129.552 12.2634 129.329 11.4564 128.883 10.9762C128.45 10.496 127.788 10.2559 126.895 10.2559C126.017 10.2559 125.341 10.5093 124.868 11.0162C124.408 11.5231 124.178 12.3168 124.178 13.3972V13.5773H129.552V13.3972Z" fill="black"/>
<path d="M142 19.1997C142 19.3331 141.973 19.4398 141.919 19.5198C141.878 19.5865 141.763 19.6332 141.574 19.6599C140.939 19.7799 140.31 19.8666 139.689 19.92C139.08 19.9733 138.465 20 137.843 20C137.086 20 136.431 19.8866 135.877 19.6599C135.322 19.4198 134.863 19.0863 134.498 18.6594C134.133 18.2326 133.863 17.7124 133.687 17.0988C133.511 16.4852 133.423 15.8049 133.423 15.0579V13.6173C133.423 12.0433 133.788 10.8361 134.518 9.99577C135.248 9.14207 136.357 8.71523 137.843 8.71523C138.154 8.71523 138.526 8.73523 138.959 8.77525C139.405 8.80193 139.824 8.84862 140.216 8.91531V5.19374C140.216 5.08702 140.25 5.00032 140.317 4.93362C140.398 4.85359 140.493 4.81357 140.601 4.81357H141.635C141.743 4.81357 141.831 4.85359 141.899 4.93362C141.966 5.00032 142 5.08702 142 5.19374V19.1997ZM140.216 10.3959C139.878 10.3292 139.479 10.2892 139.019 10.2759C138.56 10.2625 138.168 10.2559 137.843 10.2559C137.343 10.2559 136.924 10.3292 136.586 10.476C136.248 10.6227 135.978 10.8428 135.775 11.1362C135.572 11.4164 135.424 11.7699 135.329 12.1967C135.248 12.6102 135.208 13.0837 135.208 13.6173V15.0579C135.208 16.1517 135.397 16.9921 135.775 17.579C136.154 18.1659 136.843 18.4593 137.843 18.4593C138.195 18.4593 138.587 18.446 139.019 18.4193C139.465 18.3927 139.864 18.366 140.216 18.3393V10.3959Z" fill="black"/>
<path d="M10.8683 19.9002L0 10.0011V0L10.8683 9.89908V19.9002Z" fill="black"/>
<path d="M21.7369 19.9002L10.8686 10.0011V0L21.7369 9.89908L32.404 0V10.0011L21.7369 19.9002Z" fill="black"/>
</svg>
