<svg width="25" height="18" viewBox="0 0 25 18" fill="none" xmlns="http://www.w3.org/2000/svg">
<path fill-rule="evenodd" clip-rule="evenodd" d="M0 1C0 0.723858 0.223858 0.5 0.5 0.5H24.5C24.7761 0.5 25 0.723858 25 1C25 1.27614 24.7761 1.5 24.5 1.5H0.5C0.223858 1.5 0 1.27614 0 1ZM6.5 9C6.5 8.72386 6.72386 8.5 7 8.5H24.5C24.7761 8.5 25 8.72386 25 9C25 9.27614 24.7761 9.5 24.5 9.5H7C6.72386 9.5 6.5 9.27614 6.5 9ZM0.5 16.5C0.223858 16.5 0 16.7239 0 17C0 17.2761 0.223858 17.5 0.5 17.5H24.5C24.7761 17.5 25 17.2761 25 17C25 16.7239 24.7761 16.5 24.5 16.5H0.5Z" fill="white"/>
</svg>
