<svg width="48" height="49" viewBox="0 0 48 49" fill="none" xmlns="http://www.w3.org/2000/svg">
<path d="M25.7143 2.21429H8.57144C7.66211 2.21429 6.79005 2.57552 6.14706 3.2185C5.5041 3.86148 5.14287 4.73354 5.14287 5.64287V36.5L1.71429 46.7857L15.4286 43.3571H42.8571C43.7664 43.3571 44.6386 42.9958 45.2815 42.3529C45.9243 41.7101 46.2857 40.8378 46.2857 39.9286V22.7857" stroke="#763EFF" stroke-width="3.46667" stroke-linecap="round" stroke-linejoin="round"/>
<path d="M28.674 28.3979L18.3882 30.2493L20.1025 19.8265L36.3198 3.67792C36.6383 3.35657 37.0175 3.1015 37.4355 2.92744C37.8531 2.75337 38.3012 2.66376 38.7541 2.66376C39.2067 2.66376 39.6548 2.75337 40.0724 2.92744C40.4903 3.1015 40.8695 3.35657 41.1884 3.67792L44.8227 7.3122C45.1439 7.63092 45.399 8.01015 45.5732 8.42796C45.747 8.84573 45.8368 9.29388 45.8368 9.74649C45.8368 10.1991 45.747 10.6472 45.5732 11.065C45.399 11.4829 45.1439 11.8621 44.8227 12.1808L28.674 28.3979Z" stroke="#763EFF" stroke-width="3.46667" stroke-linecap="round" stroke-linejoin="round"/>
</svg>
