<svg width="170" height="24" viewBox="0 0 170 24" fill="none" xmlns="http://www.w3.org/2000/svg">
					<path d="M58.0068 23.1936C58.0068 23.3198 57.9584 23.4303 57.8615 23.525C57.7647 23.6197 57.6517 23.6671 57.5226 23.6671H56.3607C56.2316 23.6671 56.1186 23.6197 56.0218 23.525C55.925 23.4303 55.8766 23.3198 55.8766 23.1936V15.4042C55.8766 14.8044 55.8201 14.3072 55.7071 13.9126C55.6103 13.5022 55.4489 13.1786 55.223 12.9419C55.0132 12.7051 54.7388 12.5394 54.3999 12.4447C54.061 12.3342 53.6657 12.2789 53.2138 12.2789C52.6974 12.2789 52.1648 12.3658 51.6162 12.5394C51.0675 12.713 50.5107 12.934 49.9459 13.2023V23.1936C49.9459 23.3198 49.8975 23.4303 49.8006 23.525C49.7038 23.6197 49.5908 23.6671 49.4617 23.6671H48.2756C48.1465 23.6671 48.0335 23.6197 47.9367 23.525C47.856 23.4303 47.8157 23.3198 47.8157 23.1936V11.1188C47.8157 10.9925 47.856 10.8821 47.9367 10.7874C48.0335 10.6927 48.1465 10.6453 48.2756 10.6453H49.4859C49.6151 10.6453 49.7199 10.6927 49.8006 10.7874C49.8975 10.8821 49.9459 10.9925 49.9459 11.1188V11.5687C50.6237 11.2056 51.2531 10.9373 51.834 10.7637C52.415 10.5743 53.0686 10.4796 53.7948 10.4796C55.2633 10.4796 56.3284 10.9057 56.9901 11.7581C57.6679 12.6104 58.0068 13.8258 58.0068 15.4042V23.1936Z" fill="white"/>
					<path d="M71.5539 17.2982C71.5539 17.6455 71.4006 17.8191 71.094 17.8191H62.9847V18.1506C62.9847 19.5554 63.2671 20.5497 63.8319 21.1338C64.3968 21.7178 65.2359 22.0098 66.3494 22.0098C67.0595 22.0098 67.8099 21.9861 68.6007 21.9387C69.4076 21.8914 70.0934 21.8282 70.6583 21.7493H70.7793C70.8761 21.7493 70.9649 21.773 71.0456 21.8204C71.1263 21.8677 71.1666 21.9545 71.1666 22.0808V22.8858C71.1666 23.0436 71.1343 23.1699 71.0698 23.2646C71.0052 23.3435 70.8761 23.3988 70.6825 23.4303C69.9886 23.5566 69.2946 23.6513 68.6007 23.7144C67.9229 23.7934 67.1725 23.8328 66.3494 23.8328C65.6555 23.8328 64.9777 23.746 64.3161 23.5724C63.6544 23.383 63.0654 23.0752 62.549 22.649C62.0487 22.2071 61.6372 21.6231 61.3144 20.897C61.0078 20.1709 60.8545 19.2555 60.8545 18.1506V16.0197C60.8545 14.3151 61.3144 12.9655 62.2343 11.9712C63.1541 10.9768 64.4855 10.4796 66.2284 10.4796C67.116 10.4796 67.8906 10.6137 68.5523 10.8821C69.2139 11.1346 69.7626 11.5055 70.1983 11.9948C70.6502 12.4684 70.9891 13.0524 71.215 13.7469C71.441 14.4256 71.5539 15.1832 71.5539 16.0197V17.2982ZM69.3995 16.0197C69.3995 14.6781 69.1332 13.7232 68.6007 13.155C68.0843 12.5867 67.2935 12.3026 66.2284 12.3026C65.1794 12.3026 64.3726 12.6025 63.8077 13.2023C63.259 13.8021 62.9847 14.7412 62.9847 16.0197V16.2328H69.3995V16.0197Z" fill="white"/>
					<path d="M84.2242 11.0478C84.2242 11.1109 84.2161 11.1662 84.2 11.2135L80.932 22.4833C80.7706 23.0199 80.4963 23.383 80.109 23.5724C79.7217 23.746 79.2698 23.8328 78.7534 23.8328C78.237 23.8328 77.7851 23.746 77.3978 23.5724C77.0105 23.383 76.7362 23.0199 76.5748 22.4833L73.3068 11.2135C73.2907 11.1662 73.2826 11.1109 73.2826 11.0478C73.2826 10.7795 73.4117 10.6453 73.67 10.6453H75.0013C75.2111 10.6453 75.3644 10.7953 75.4613 11.0951L78.2451 21.4179C78.3257 21.702 78.3984 21.8914 78.4629 21.9861C78.5275 22.065 78.6243 22.1045 78.7534 22.1045C78.8664 22.1045 78.9551 22.065 79.0197 21.9861C79.1004 21.8914 79.1811 21.702 79.2617 21.4179L82.0455 11.0951C82.1424 10.7953 82.2957 10.6453 82.5055 10.6453H83.8368C84.0951 10.6453 84.2242 10.7795 84.2242 11.0478Z" fill="white"/>
					<path d="M96.6118 17.2982C96.6118 17.6455 96.4585 17.8191 96.1519 17.8191H88.0426V18.1506C88.0426 19.5554 88.325 20.5497 88.8898 21.1338C89.4547 21.7178 90.2938 22.0098 91.4074 22.0098C92.1174 22.0098 92.8678 21.9861 93.6586 21.9387C94.4655 21.8914 95.1514 21.8282 95.7162 21.7493H95.8372C95.934 21.7493 96.0228 21.773 96.1035 21.8204C96.1842 21.8677 96.2245 21.9545 96.2245 22.0808V22.8858C96.2245 23.0436 96.1923 23.1699 96.1277 23.2646C96.0631 23.3435 95.934 23.3988 95.7404 23.4303C95.0465 23.5566 94.3525 23.6513 93.6586 23.7144C92.9808 23.7934 92.2304 23.8328 91.4074 23.8328C90.7134 23.8328 90.0356 23.746 89.374 23.5724C88.7123 23.383 88.1233 23.0752 87.6069 22.649C87.1066 22.2071 86.6951 21.6231 86.3723 20.897C86.0657 20.1709 85.9124 19.2555 85.9124 18.1506V16.0197C85.9124 14.3151 86.3723 12.9655 87.2922 11.9712C88.2121 10.9768 89.5434 10.4796 91.2863 10.4796C92.1739 10.4796 92.9485 10.6137 93.6102 10.8821C94.2718 11.1346 94.8205 11.5055 95.2563 11.9948C95.7081 12.4684 96.047 13.0524 96.2729 13.7469C96.4989 14.4256 96.6118 15.1832 96.6118 16.0197V17.2982ZM94.4574 16.0197C94.4574 14.6781 94.1912 13.7232 93.6586 13.155C93.1422 12.5867 92.3514 12.3026 91.2863 12.3026C90.2374 12.3026 89.4305 12.6025 88.8656 13.2023C88.3169 13.8021 88.0426 14.7412 88.0426 16.0197V16.2328H94.4574V16.0197Z" fill="white"/>
					<path d="M105.494 11.8765C105.494 12.1448 105.325 12.2789 104.986 12.2789C104.421 12.2789 103.873 12.3579 103.34 12.5157C102.824 12.6578 102.259 12.9103 101.646 13.2733V23.1936C101.646 23.3198 101.597 23.4303 101.5 23.525C101.403 23.6197 101.291 23.6671 101.161 23.6671H99.9753C99.8462 23.6671 99.7332 23.6197 99.6364 23.525C99.5557 23.4303 99.5153 23.3198 99.5153 23.1936V11.1188C99.5153 10.9925 99.5557 10.8821 99.6364 10.7874C99.7332 10.6927 99.8462 10.6453 99.9753 10.6453H101.113C101.242 10.6453 101.347 10.6927 101.428 10.7874C101.525 10.8821 101.573 10.9925 101.573 11.1188V11.616C102.186 11.2056 102.767 10.9136 103.316 10.74C103.881 10.5664 104.437 10.4796 104.986 10.4796C105.325 10.4796 105.494 10.6216 105.494 10.9057V11.8765Z" fill="white"/>
					<path d="M123.814 23.1936C123.814 23.3198 123.766 23.4303 123.669 23.525C123.572 23.6197 123.459 23.6671 123.33 23.6671H122.168C122.039 23.6671 121.926 23.6197 121.829 23.525C121.732 23.4303 121.684 23.3198 121.684 23.1936V14.8123C121.684 14.323 121.627 13.9126 121.514 13.5811C121.402 13.2497 121.248 12.9892 121.055 12.7998C120.861 12.6104 120.627 12.4762 120.353 12.3973C120.078 12.3184 119.788 12.2789 119.481 12.2789C119.045 12.2789 118.577 12.3421 118.077 12.4684C117.593 12.5946 117.117 12.7446 116.649 12.9182C116.794 13.4391 116.867 14.0546 116.867 14.7649V23.1936C116.867 23.3198 116.826 23.4303 116.746 23.525C116.665 23.6197 116.56 23.6671 116.431 23.6671H115.148C115.019 23.6671 114.914 23.6197 114.833 23.525C114.769 23.4303 114.737 23.3198 114.737 23.1936V14.7649C114.737 14.244 114.696 13.8258 114.616 13.5101C114.551 13.1786 114.438 12.9261 114.277 12.7525C114.115 12.5631 113.914 12.4368 113.671 12.3736C113.446 12.3105 113.179 12.2789 112.873 12.2789C112.437 12.2789 111.961 12.3736 111.444 12.5631C110.944 12.7367 110.436 12.9498 109.919 13.2023V23.1936C109.919 23.3198 109.879 23.4303 109.798 23.525C109.718 23.6197 109.613 23.6671 109.484 23.6671H108.201C108.072 23.6671 107.967 23.6197 107.886 23.525C107.821 23.4303 107.789 23.3198 107.789 23.1936V11.1188C107.789 10.9925 107.83 10.8821 107.91 10.7874C108.007 10.6927 108.12 10.6453 108.249 10.6453H109.459C109.589 10.6453 109.693 10.6927 109.774 10.7874C109.871 10.8821 109.919 10.9925 109.919 11.1188V11.5687C110.404 11.2688 110.944 11.0083 111.541 10.7874C112.138 10.5664 112.776 10.4559 113.454 10.4559C113.97 10.4559 114.422 10.5348 114.809 10.6927C115.213 10.8347 115.568 11.0794 115.874 11.4266C116.552 11.1109 117.23 10.8742 117.908 10.7163C118.602 10.5427 119.263 10.4559 119.893 10.4559C120.441 10.4559 120.95 10.5269 121.418 10.669C121.902 10.811 122.321 11.0557 122.676 11.4029C123.031 11.7344 123.306 12.1842 123.499 12.7525C123.709 13.3049 123.814 13.9915 123.814 14.8123V23.1936Z" fill="white"/>
					<path d="M129.548 8.0883C129.548 8.21457 129.499 8.32506 129.402 8.41976C129.306 8.51447 129.193 8.56182 129.063 8.56182H127.829C127.7 8.56182 127.587 8.51447 127.49 8.41976C127.393 8.32506 127.345 8.21457 127.345 8.0883V6.19422C127.345 6.06795 127.393 5.95746 127.49 5.86276C127.587 5.76805 127.7 5.7207 127.829 5.7207H129.063C129.193 5.7207 129.306 5.76805 129.402 5.86276C129.499 5.95746 129.548 6.06795 129.548 6.19422V8.0883ZM129.499 23.1936C129.499 23.3198 129.451 23.4303 129.354 23.525C129.257 23.6197 129.144 23.6671 129.015 23.6671H127.853C127.724 23.6671 127.611 23.6197 127.514 23.525C127.417 23.4303 127.369 23.3198 127.369 23.1936V11.1188C127.369 10.9925 127.417 10.8821 127.514 10.7874C127.611 10.6927 127.724 10.6453 127.853 10.6453H129.015C129.144 10.6453 129.257 10.6927 129.354 10.7874C129.451 10.8821 129.499 10.9925 129.499 11.1188V23.1936Z" fill="white"/>
					<path d="M143.275 23.1936C143.275 23.3198 143.226 23.4303 143.129 23.525C143.033 23.6197 142.92 23.6671 142.79 23.6671H141.629C141.499 23.6671 141.386 23.6197 141.29 23.525C141.193 23.4303 141.144 23.3198 141.144 23.1936V15.4042C141.144 14.8044 141.088 14.3072 140.975 13.9126C140.878 13.5022 140.717 13.1786 140.491 12.9419C140.281 12.7051 140.007 12.5394 139.668 12.4447C139.329 12.3342 138.933 12.2789 138.482 12.2789C137.965 12.2789 137.433 12.3658 136.884 12.5394C136.335 12.713 135.779 12.934 135.214 13.2023V23.1936C135.214 23.3198 135.165 23.4303 135.068 23.525C134.972 23.6197 134.859 23.6671 134.73 23.6671H133.543C133.414 23.6671 133.301 23.6197 133.205 23.525C133.124 23.4303 133.083 23.3198 133.083 23.1936V11.1188C133.083 10.9925 133.124 10.8821 133.205 10.7874C133.301 10.6927 133.414 10.6453 133.543 10.6453H134.754C134.883 10.6453 134.988 10.6927 135.068 10.7874C135.165 10.8821 135.214 10.9925 135.214 11.1188V11.5687C135.891 11.2056 136.521 10.9373 137.102 10.7637C137.683 10.5743 138.336 10.4796 139.063 10.4796C140.531 10.4796 141.596 10.9057 142.258 11.7581C142.936 12.6104 143.275 13.8258 143.275 15.4042V23.1936Z" fill="white"/>
					<path d="M156.822 17.2982C156.822 17.6455 156.668 17.8191 156.362 17.8191H148.253V18.1506C148.253 19.5554 148.535 20.5497 149.1 21.1338C149.665 21.7178 150.504 22.0098 151.617 22.0098C152.327 22.0098 153.078 21.9861 153.868 21.9387C154.675 21.8914 155.361 21.8282 155.926 21.7493H156.047C156.144 21.7493 156.233 21.773 156.313 21.8204C156.394 21.8677 156.434 21.9545 156.434 22.0808V22.8858C156.434 23.0436 156.402 23.1699 156.338 23.2646C156.273 23.3435 156.144 23.3988 155.95 23.4303C155.256 23.5566 154.562 23.6513 153.868 23.7144C153.191 23.7934 152.44 23.8328 151.617 23.8328C150.923 23.8328 150.246 23.746 149.584 23.5724C148.922 23.383 148.333 23.0752 147.817 22.649C147.316 22.2071 146.905 21.6231 146.582 20.897C146.276 20.1709 146.122 19.2555 146.122 18.1506V16.0197C146.122 14.3151 146.582 12.9655 147.502 11.9712C148.422 10.9768 149.753 10.4796 151.496 10.4796C152.384 10.4796 153.158 10.6137 153.82 10.8821C154.482 11.1346 155.03 11.5055 155.466 11.9948C155.918 12.4684 156.257 13.0524 156.483 13.7469C156.709 14.4256 156.822 15.1832 156.822 16.0197V17.2982ZM154.667 16.0197C154.667 14.6781 154.401 13.7232 153.868 13.155C153.352 12.5867 152.561 12.3026 151.496 12.3026C150.447 12.3026 149.64 12.6025 149.076 13.2023C148.527 13.8021 148.253 14.7412 148.253 16.0197V16.2328H154.667V16.0197Z" fill="white"/>
					<path d="M169.529 22.8858C169.529 23.0436 169.497 23.1699 169.432 23.2646C169.384 23.3435 169.247 23.3988 169.021 23.4303C168.262 23.5724 167.512 23.675 166.769 23.7381C166.043 23.8012 165.309 23.8328 164.567 23.8328C163.663 23.8328 162.88 23.6986 162.219 23.4303C161.557 23.1462 161.008 22.7516 160.572 22.2465C160.137 21.7414 159.814 21.1259 159.604 20.3998C159.394 19.6737 159.29 18.8688 159.29 17.9848V16.2802C159.29 14.4177 159.725 12.9892 160.597 11.9948C161.468 10.9847 162.791 10.4796 164.567 10.4796C164.938 10.4796 165.382 10.5032 165.898 10.5506C166.431 10.5822 166.931 10.6374 167.399 10.7163V6.3126C167.399 6.18633 167.439 6.08373 167.52 6.00481C167.617 5.91011 167.73 5.86276 167.859 5.86276H169.093C169.222 5.86276 169.327 5.91011 169.408 6.00481C169.489 6.08373 169.529 6.18633 169.529 6.3126V22.8858ZM167.399 12.4684C166.995 12.3894 166.519 12.3421 165.971 12.3263C165.422 12.3105 164.954 12.3026 164.567 12.3026C163.97 12.3026 163.469 12.3894 163.066 12.5631C162.662 12.7367 162.34 12.9971 162.098 13.3444C161.855 13.6758 161.678 14.0941 161.565 14.5992C161.468 15.0885 161.42 15.6488 161.42 16.2802V17.9848C161.42 19.2791 161.646 20.2735 162.098 20.968C162.549 21.6625 163.372 22.0098 164.567 22.0098C164.986 22.0098 165.454 21.994 165.971 21.9624C166.503 21.9308 166.979 21.8993 167.399 21.8677V12.4684Z" fill="white"/>
					<path fill-rule="evenodd" clip-rule="evenodd" d="M12.9753 23.7148L0 12.0012V0.166992L12.9753 11.8805V23.7148ZM25.9509 23.7148L12.9756 12.0012V0.166992L25.9509 11.8805L38.686 0.166992V12.0012L25.9509 23.7148Z" fill="white"/>
				</svg>